<svg xmlns="http://www.w3.org/2000/svg" xmlns:xlink="http://www.w3.org/1999/xlink" width="155" height="167" viewBox="0 0 155 167">
  <defs>
    <clipPath id="clip-path">
      <rect width="155" height="167" fill="none"/>
    </clipPath>
  </defs>
  <g id="Repeat_Grid_4" data-name="Repeat Grid 4" clip-path="url(#clip-path)">
    <g id="Group_5688" data-name="Group 5688" transform="translate(-997 -476)">
      <circle id="Ellipse_180" data-name="Ellipse 180" cx="3" cy="3" r="3" transform="translate(997 476)" fill="#b7bbc4"/>
      <g id="Ellipse_181" data-name="Ellipse 181" transform="translate(1021 476)" fill="none" stroke="#b7bbc4" stroke-width="1">
        <circle cx="3" cy="3" r="3" stroke="none"/>
        <circle cx="3" cy="3" r="2.5" fill="none"/>
      </g>
    </g>
    <g id="Group_5688-2" data-name="Group 5688" transform="translate(-949 -476)">
      <circle id="Ellipse_180-2" data-name="Ellipse 180" cx="3" cy="3" r="3" transform="translate(997 476)" fill="#b7bbc4"/>
      <g id="Ellipse_181-2" data-name="Ellipse 181" transform="translate(1021 476)" fill="none" stroke="#b7bbc4" stroke-width="1">
        <circle cx="3" cy="3" r="3" stroke="none"/>
        <circle cx="3" cy="3" r="2.5" fill="none"/>
      </g>
    </g>
    <g id="Group_5688-3" data-name="Group 5688" transform="translate(-901 -476)">
      <circle id="Ellipse_180-3" data-name="Ellipse 180" cx="3" cy="3" r="3" transform="translate(997 476)" fill="#b7bbc4"/>
      <g id="Ellipse_181-3" data-name="Ellipse 181" transform="translate(1021 476)" fill="none" stroke="#b7bbc4" stroke-width="1">
        <circle cx="3" cy="3" r="3" stroke="none"/>
        <circle cx="3" cy="3" r="2.5" fill="none"/>
      </g>
    </g>
    <g id="Group_5688-4" data-name="Group 5688" transform="translate(-853 -476)">
      <circle id="Ellipse_180-4" data-name="Ellipse 180" cx="3" cy="3" r="3" transform="translate(997 476)" fill="#b7bbc4"/>
      <g id="Ellipse_181-4" data-name="Ellipse 181" transform="translate(1021 476)" fill="none" stroke="#b7bbc4" stroke-width="1">
        <circle cx="3" cy="3" r="3" stroke="none"/>
        <circle cx="3" cy="3" r="2.5" fill="none"/>
      </g>
    </g>
    <g id="Group_5688-5" data-name="Group 5688" transform="translate(-997 -450)">
      <circle id="Ellipse_180-5" data-name="Ellipse 180" cx="3" cy="3" r="3" transform="translate(997 476)" fill="#b7bbc4"/>
      <g id="Ellipse_181-5" data-name="Ellipse 181" transform="translate(1021 476)" fill="none" stroke="#b7bbc4" stroke-width="1">
        <circle cx="3" cy="3" r="3" stroke="none"/>
        <circle cx="3" cy="3" r="2.5" fill="none"/>
      </g>
    </g>
    <g id="Group_5688-6" data-name="Group 5688" transform="translate(-949 -450)">
      <circle id="Ellipse_180-6" data-name="Ellipse 180" cx="3" cy="3" r="3" transform="translate(997 476)" fill="#b7bbc4"/>
      <g id="Ellipse_181-6" data-name="Ellipse 181" transform="translate(1021 476)" fill="none" stroke="#b7bbc4" stroke-width="1">
        <circle cx="3" cy="3" r="3" stroke="none"/>
        <circle cx="3" cy="3" r="2.5" fill="none"/>
      </g>
    </g>
    <g id="Group_5688-7" data-name="Group 5688" transform="translate(-901 -450)">
      <circle id="Ellipse_180-7" data-name="Ellipse 180" cx="3" cy="3" r="3" transform="translate(997 476)" fill="#b7bbc4"/>
      <g id="Ellipse_181-7" data-name="Ellipse 181" transform="translate(1021 476)" fill="none" stroke="#b7bbc4" stroke-width="1">
        <circle cx="3" cy="3" r="3" stroke="none"/>
        <circle cx="3" cy="3" r="2.5" fill="none"/>
      </g>
    </g>
    <g id="Group_5688-8" data-name="Group 5688" transform="translate(-853 -450)">
      <circle id="Ellipse_180-8" data-name="Ellipse 180" cx="3" cy="3" r="3" transform="translate(997 476)" fill="#b7bbc4"/>
      <g id="Ellipse_181-8" data-name="Ellipse 181" transform="translate(1021 476)" fill="none" stroke="#b7bbc4" stroke-width="1">
        <circle cx="3" cy="3" r="3" stroke="none"/>
        <circle cx="3" cy="3" r="2.5" fill="none"/>
      </g>
    </g>
    <g id="Group_5688-9" data-name="Group 5688" transform="translate(-997 -424)">
      <circle id="Ellipse_180-9" data-name="Ellipse 180" cx="3" cy="3" r="3" transform="translate(997 476)" fill="#b7bbc4"/>
      <g id="Ellipse_181-9" data-name="Ellipse 181" transform="translate(1021 476)" fill="none" stroke="#b7bbc4" stroke-width="1">
        <circle cx="3" cy="3" r="3" stroke="none"/>
        <circle cx="3" cy="3" r="2.5" fill="none"/>
      </g>
    </g>
    <g id="Group_5688-10" data-name="Group 5688" transform="translate(-949 -424)">
      <circle id="Ellipse_180-10" data-name="Ellipse 180" cx="3" cy="3" r="3" transform="translate(997 476)" fill="#b7bbc4"/>
      <g id="Ellipse_181-10" data-name="Ellipse 181" transform="translate(1021 476)" fill="none" stroke="#b7bbc4" stroke-width="1">
        <circle cx="3" cy="3" r="3" stroke="none"/>
        <circle cx="3" cy="3" r="2.5" fill="none"/>
      </g>
    </g>
    <g id="Group_5688-11" data-name="Group 5688" transform="translate(-901 -424)">
      <circle id="Ellipse_180-11" data-name="Ellipse 180" cx="3" cy="3" r="3" transform="translate(997 476)" fill="#b7bbc4"/>
      <g id="Ellipse_181-11" data-name="Ellipse 181" transform="translate(1021 476)" fill="none" stroke="#b7bbc4" stroke-width="1">
        <circle cx="3" cy="3" r="3" stroke="none"/>
        <circle cx="3" cy="3" r="2.5" fill="none"/>
      </g>
    </g>
    <g id="Group_5688-12" data-name="Group 5688" transform="translate(-853 -424)">
      <circle id="Ellipse_180-12" data-name="Ellipse 180" cx="3" cy="3" r="3" transform="translate(997 476)" fill="#b7bbc4"/>
      <g id="Ellipse_181-12" data-name="Ellipse 181" transform="translate(1021 476)" fill="none" stroke="#b7bbc4" stroke-width="1">
        <circle cx="3" cy="3" r="3" stroke="none"/>
        <circle cx="3" cy="3" r="2.5" fill="none"/>
      </g>
    </g>
    <g id="Group_5688-13" data-name="Group 5688" transform="translate(-997 -398)">
      <circle id="Ellipse_180-13" data-name="Ellipse 180" cx="3" cy="3" r="3" transform="translate(997 476)" fill="#b7bbc4"/>
      <g id="Ellipse_181-13" data-name="Ellipse 181" transform="translate(1021 476)" fill="none" stroke="#b7bbc4" stroke-width="1">
        <circle cx="3" cy="3" r="3" stroke="none"/>
        <circle cx="3" cy="3" r="2.5" fill="none"/>
      </g>
    </g>
    <g id="Group_5688-14" data-name="Group 5688" transform="translate(-949 -398)">
      <circle id="Ellipse_180-14" data-name="Ellipse 180" cx="3" cy="3" r="3" transform="translate(997 476)" fill="#b7bbc4"/>
      <g id="Ellipse_181-14" data-name="Ellipse 181" transform="translate(1021 476)" fill="none" stroke="#b7bbc4" stroke-width="1">
        <circle cx="3" cy="3" r="3" stroke="none"/>
        <circle cx="3" cy="3" r="2.5" fill="none"/>
      </g>
    </g>
    <g id="Group_5688-15" data-name="Group 5688" transform="translate(-901 -398)">
      <circle id="Ellipse_180-15" data-name="Ellipse 180" cx="3" cy="3" r="3" transform="translate(997 476)" fill="#b7bbc4"/>
      <g id="Ellipse_181-15" data-name="Ellipse 181" transform="translate(1021 476)" fill="none" stroke="#b7bbc4" stroke-width="1">
        <circle cx="3" cy="3" r="3" stroke="none"/>
        <circle cx="3" cy="3" r="2.5" fill="none"/>
      </g>
    </g>
    <g id="Group_5688-16" data-name="Group 5688" transform="translate(-853 -398)">
      <circle id="Ellipse_180-16" data-name="Ellipse 180" cx="3" cy="3" r="3" transform="translate(997 476)" fill="#b7bbc4"/>
      <g id="Ellipse_181-16" data-name="Ellipse 181" transform="translate(1021 476)" fill="none" stroke="#b7bbc4" stroke-width="1">
        <circle cx="3" cy="3" r="3" stroke="none"/>
        <circle cx="3" cy="3" r="2.5" fill="none"/>
      </g>
    </g>
    <g id="Group_5688-17" data-name="Group 5688" transform="translate(-997 -372)">
      <circle id="Ellipse_180-17" data-name="Ellipse 180" cx="3" cy="3" r="3" transform="translate(997 476)" fill="#b7bbc4"/>
      <g id="Ellipse_181-17" data-name="Ellipse 181" transform="translate(1021 476)" fill="none" stroke="#b7bbc4" stroke-width="1">
        <circle cx="3" cy="3" r="3" stroke="none"/>
        <circle cx="3" cy="3" r="2.5" fill="none"/>
      </g>
    </g>
    <g id="Group_5688-18" data-name="Group 5688" transform="translate(-949 -372)">
      <circle id="Ellipse_180-18" data-name="Ellipse 180" cx="3" cy="3" r="3" transform="translate(997 476)" fill="#b7bbc4"/>
      <g id="Ellipse_181-18" data-name="Ellipse 181" transform="translate(1021 476)" fill="none" stroke="#b7bbc4" stroke-width="1">
        <circle cx="3" cy="3" r="3" stroke="none"/>
        <circle cx="3" cy="3" r="2.5" fill="none"/>
      </g>
    </g>
    <g id="Group_5688-19" data-name="Group 5688" transform="translate(-901 -372)">
      <circle id="Ellipse_180-19" data-name="Ellipse 180" cx="3" cy="3" r="3" transform="translate(997 476)" fill="#b7bbc4"/>
      <g id="Ellipse_181-19" data-name="Ellipse 181" transform="translate(1021 476)" fill="none" stroke="#b7bbc4" stroke-width="1">
        <circle cx="3" cy="3" r="3" stroke="none"/>
        <circle cx="3" cy="3" r="2.5" fill="none"/>
      </g>
    </g>
    <g id="Group_5688-20" data-name="Group 5688" transform="translate(-853 -372)">
      <circle id="Ellipse_180-20" data-name="Ellipse 180" cx="3" cy="3" r="3" transform="translate(997 476)" fill="#b7bbc4"/>
      <g id="Ellipse_181-20" data-name="Ellipse 181" transform="translate(1021 476)" fill="none" stroke="#b7bbc4" stroke-width="1">
        <circle cx="3" cy="3" r="3" stroke="none"/>
        <circle cx="3" cy="3" r="2.5" fill="none"/>
      </g>
    </g>
    <g id="Group_5688-21" data-name="Group 5688" transform="translate(-997 -346)">
      <circle id="Ellipse_180-21" data-name="Ellipse 180" cx="3" cy="3" r="3" transform="translate(997 476)" fill="#b7bbc4"/>
      <g id="Ellipse_181-21" data-name="Ellipse 181" transform="translate(1021 476)" fill="none" stroke="#b7bbc4" stroke-width="1">
        <circle cx="3" cy="3" r="3" stroke="none"/>
        <circle cx="3" cy="3" r="2.5" fill="none"/>
      </g>
    </g>
    <g id="Group_5688-22" data-name="Group 5688" transform="translate(-949 -346)">
      <circle id="Ellipse_180-22" data-name="Ellipse 180" cx="3" cy="3" r="3" transform="translate(997 476)" fill="#b7bbc4"/>
      <g id="Ellipse_181-22" data-name="Ellipse 181" transform="translate(1021 476)" fill="none" stroke="#b7bbc4" stroke-width="1">
        <circle cx="3" cy="3" r="3" stroke="none"/>
        <circle cx="3" cy="3" r="2.5" fill="none"/>
      </g>
    </g>
    <g id="Group_5688-23" data-name="Group 5688" transform="translate(-901 -346)">
      <circle id="Ellipse_180-23" data-name="Ellipse 180" cx="3" cy="3" r="3" transform="translate(997 476)" fill="#b7bbc4"/>
      <g id="Ellipse_181-23" data-name="Ellipse 181" transform="translate(1021 476)" fill="none" stroke="#b7bbc4" stroke-width="1">
        <circle cx="3" cy="3" r="3" stroke="none"/>
        <circle cx="3" cy="3" r="2.5" fill="none"/>
      </g>
    </g>
    <g id="Group_5688-24" data-name="Group 5688" transform="translate(-853 -346)">
      <circle id="Ellipse_180-24" data-name="Ellipse 180" cx="3" cy="3" r="3" transform="translate(997 476)" fill="#b7bbc4"/>
      <g id="Ellipse_181-24" data-name="Ellipse 181" transform="translate(1021 476)" fill="none" stroke="#b7bbc4" stroke-width="1">
        <circle cx="3" cy="3" r="3" stroke="none"/>
        <circle cx="3" cy="3" r="2.5" fill="none"/>
      </g>
    </g>
    <g id="Group_5688-25" data-name="Group 5688" transform="translate(-997 -320)">
      <circle id="Ellipse_180-25" data-name="Ellipse 180" cx="3" cy="3" r="3" transform="translate(997 476)" fill="#b7bbc4"/>
      <g id="Ellipse_181-25" data-name="Ellipse 181" transform="translate(1021 476)" fill="none" stroke="#b7bbc4" stroke-width="1">
        <circle cx="3" cy="3" r="3" stroke="none"/>
        <circle cx="3" cy="3" r="2.5" fill="none"/>
      </g>
    </g>
    <g id="Group_5688-26" data-name="Group 5688" transform="translate(-949 -320)">
      <circle id="Ellipse_180-26" data-name="Ellipse 180" cx="3" cy="3" r="3" transform="translate(997 476)" fill="#b7bbc4"/>
      <g id="Ellipse_181-26" data-name="Ellipse 181" transform="translate(1021 476)" fill="none" stroke="#b7bbc4" stroke-width="1">
        <circle cx="3" cy="3" r="3" stroke="none"/>
        <circle cx="3" cy="3" r="2.5" fill="none"/>
      </g>
    </g>
    <g id="Group_5688-27" data-name="Group 5688" transform="translate(-901 -320)">
      <circle id="Ellipse_180-27" data-name="Ellipse 180" cx="3" cy="3" r="3" transform="translate(997 476)" fill="#b7bbc4"/>
      <g id="Ellipse_181-27" data-name="Ellipse 181" transform="translate(1021 476)" fill="none" stroke="#b7bbc4" stroke-width="1">
        <circle cx="3" cy="3" r="3" stroke="none"/>
        <circle cx="3" cy="3" r="2.5" fill="none"/>
      </g>
    </g>
    <g id="Group_5688-28" data-name="Group 5688" transform="translate(-853 -320)">
      <circle id="Ellipse_180-28" data-name="Ellipse 180" cx="3" cy="3" r="3" transform="translate(997 476)" fill="#b7bbc4"/>
      <g id="Ellipse_181-28" data-name="Ellipse 181" transform="translate(1021 476)" fill="none" stroke="#b7bbc4" stroke-width="1">
        <circle cx="3" cy="3" r="3" stroke="none"/>
        <circle cx="3" cy="3" r="2.5" fill="none"/>
      </g>
    </g>
  </g>
</svg>
